<svg width="31" height="31" viewBox="0 0 31 31" fill="none" xmlns="http://www.w3.org/2000/svg">
<path d="M5.68788 22.3883C5.8825 22.5976 6.03163 22.8504 6.12464 23.1286C6.21766 23.4068 6.25227 23.7035 6.226 23.9976C6.09422 25.359 5.84439 26.7043 5.47975 28.0161C8.09538 27.3671 9.69288 26.6156 10.4185 26.2218C10.8301 25.9985 11.304 25.9455 11.7498 26.0732C13.0274 26.4382 14.3443 26.6219 15.6666 26.6197C23.1591 26.6197 28.7916 20.9798 28.7916 14.5644C28.7916 8.15105 23.1591 2.5092 15.6666 2.5092C8.17413 2.5092 2.54163 8.15105 2.54163 14.5644C2.54163 17.5139 3.6985 20.2505 5.68788 22.3883ZM4.7635 30.2342C4.31925 30.3286 3.87357 30.415 3.42663 30.4934C3.05163 30.5577 2.76663 30.1398 2.91475 29.7661C3.08124 29.3453 3.23383 28.9185 3.37225 28.4862L3.37788 28.4661C3.84288 27.0195 4.22163 25.3559 4.36038 23.8068C2.05975 21.3355 0.666626 18.1006 0.666626 14.5644C0.666626 6.79685 7.38288 0.5 15.6666 0.5C23.9504 0.5 30.6666 6.79685 30.6666 14.5644C30.6666 22.332 23.9504 28.6289 15.6666 28.6289C14.181 28.631 12.7015 28.4243 11.266 28.014C10.291 28.5425 8.19288 29.5049 4.7635 30.2342V30.2342Z" fill="white"/>
</svg>
