<svg width="30" height="30" viewBox="0 0 30 30" fill="none" xmlns="http://www.w3.org/2000/svg">
<path d="M5.02125 21.8883C5.21587 22.0976 5.365 22.3504 5.45802 22.6286C5.55103 22.9068 5.58564 23.2035 5.55937 23.4976C5.4276 24.859 5.17777 26.2043 4.81312 27.5161C7.42875 26.8671 9.02625 26.1156 9.75188 25.7218C10.1634 25.4985 10.6374 25.4455 11.0831 25.5732C12.3608 25.9382 13.6777 26.1219 15 26.1197C22.4925 26.1197 28.125 20.4798 28.125 14.0644C28.125 7.65105 22.4925 2.0092 15 2.0092C7.5075 2.0092 1.875 7.65105 1.875 14.0644C1.875 17.0139 3.03187 19.7505 5.02125 21.8883ZM4.09687 29.7342C3.65263 29.8286 3.20694 29.915 2.76 29.9934C2.385 30.0577 2.1 29.6398 2.24813 29.2661C2.41461 28.8453 2.5672 28.4185 2.70562 27.9862L2.71125 27.9661C3.17625 26.5195 3.555 24.8559 3.69375 23.3068C1.39313 20.8355 0 17.6006 0 14.0644C0 6.29685 6.71625 0 15 0C23.2838 0 30 6.29685 30 14.0644C30 21.832 23.2838 28.1289 15 28.1289C13.5143 28.131 12.0349 27.9243 10.5994 27.514C9.62437 28.0425 7.52625 29.0049 4.09687 29.7342V29.7342Z" fill="#161616"/>
</svg>
