<svg width="31" height="30" viewBox="0 0 31 30" fill="none" xmlns="http://www.w3.org/2000/svg">
<path d="M15.5 0C11.4294 0 10.9175 0.01875 9.31812 0.09C7.71875 0.165 6.62937 0.41625 5.675 0.7875C4.67393 1.16404 3.76717 1.75467 3.01813 2.51813C2.25514 3.26756 1.66458 4.1742 1.2875 5.175C0.91625 6.1275 0.663125 7.21875 0.59 8.8125C0.51875 10.4156 0.5 10.9256 0.5 15.0019C0.5 19.0744 0.51875 19.5844 0.59 21.1838C0.665 22.7812 0.91625 23.8706 1.2875 24.825C1.67188 25.8112 2.18375 26.6475 3.01813 27.4819C3.85063 28.3162 4.68687 28.83 5.67313 29.2125C6.62937 29.5837 7.71688 29.8369 9.31437 29.91C10.9156 29.9812 11.4256 30 15.5 30C19.5744 30 20.0825 29.9812 21.6838 29.91C23.2794 29.835 24.3725 29.5837 25.3269 29.2125C26.3273 28.8358 27.2334 28.2451 27.9819 27.4819C28.8162 26.6475 29.3281 25.8112 29.7125 24.825C30.0819 23.8706 30.335 22.7812 30.41 21.1838C30.4812 19.5844 30.5 19.0744 30.5 15C30.5 10.9256 30.4812 10.4156 30.41 8.81437C30.335 7.21875 30.0819 6.1275 29.7125 5.175C29.3355 4.17417 28.7449 3.26752 27.9819 2.51813C27.2331 1.75439 26.3262 1.16371 25.325 0.7875C24.3687 0.41625 23.2775 0.163125 21.6819 0.09C20.0806 0.01875 19.5725 0 15.4963 0H15.5019H15.5ZM14.1556 2.70375H15.5019C19.5069 2.70375 19.9812 2.71688 21.5619 2.79C23.0244 2.85563 23.8194 3.10125 24.3481 3.30562C25.0475 3.5775 25.5481 3.90375 26.0731 4.42875C26.5981 4.95375 26.9225 5.4525 27.1944 6.15375C27.4006 6.68062 27.6444 7.47563 27.71 8.93813C27.7831 10.5188 27.7981 10.9931 27.7981 14.9963C27.7981 18.9994 27.7831 19.4756 27.71 21.0562C27.6444 22.5187 27.3988 23.3119 27.1944 23.8406C26.9539 24.4919 26.57 25.0808 26.0712 25.5637C25.5462 26.0887 25.0475 26.4131 24.3463 26.685C23.8213 26.8913 23.0262 27.135 21.5619 27.2025C19.9812 27.2738 19.5069 27.2906 15.5019 27.2906C11.4969 27.2906 11.0206 27.2738 9.44 27.2025C7.9775 27.135 7.18437 26.8913 6.65562 26.685C6.00406 26.4449 5.41461 26.0617 4.93062 25.5637C4.43141 25.0801 4.04698 24.4906 3.80562 23.8387C3.60125 23.3119 3.35563 22.5169 3.29 21.0544C3.21875 19.4738 3.20375 18.9994 3.20375 14.9925C3.20375 10.9875 3.21875 10.515 3.29 8.93437C3.3575 7.47187 3.60125 6.67688 3.8075 6.14813C4.07938 5.44875 4.40562 4.94812 4.93062 4.42312C5.45563 3.89812 5.95437 3.57375 6.65562 3.30188C7.18437 3.09563 7.9775 2.85188 9.44 2.78437C10.8238 2.72062 11.36 2.70188 14.1556 2.7V2.70375ZM23.5081 5.19375C23.2717 5.19375 23.0377 5.24031 22.8193 5.33077C22.6009 5.42123 22.4025 5.55381 22.2353 5.72096C22.0682 5.8881 21.9356 6.08653 21.8451 6.30492C21.7547 6.52331 21.7081 6.75737 21.7081 6.99375C21.7081 7.23013 21.7547 7.46419 21.8451 7.68258C21.9356 7.90097 22.0682 8.0994 22.2353 8.26654C22.4025 8.43369 22.6009 8.56627 22.8193 8.65673C23.0377 8.74719 23.2717 8.79375 23.5081 8.79375C23.9855 8.79375 24.4434 8.60411 24.7809 8.26654C25.1185 7.92898 25.3081 7.47114 25.3081 6.99375C25.3081 6.51636 25.1185 6.05852 24.7809 5.72096C24.4434 5.38339 23.9855 5.19375 23.5081 5.19375ZM15.5019 7.2975C14.4801 7.28156 13.4654 7.46904 12.5168 7.84901C11.5682 8.22899 10.7047 8.79388 9.97653 9.51079C9.24835 10.2277 8.67006 11.0823 8.27533 12.0249C7.8806 12.9674 7.67731 13.9791 7.67731 15.0009C7.67731 16.0228 7.8806 17.0345 8.27533 17.977C8.67006 18.9196 9.24835 19.7742 9.97653 20.4911C10.7047 21.208 11.5682 21.7729 12.5168 22.1529C13.4654 22.5328 14.4801 22.7203 15.5019 22.7044C17.5241 22.6728 19.4529 21.8473 20.8718 20.4061C22.2908 18.9649 23.0861 17.0234 23.0861 15.0009C23.0861 12.9784 22.2908 11.037 20.8718 9.59578C19.4529 8.15454 17.5241 7.32905 15.5019 7.2975ZM15.5019 9.99938C16.8281 9.99938 18.1001 10.5262 19.0379 11.464C19.9757 12.4018 20.5025 13.6738 20.5025 15C20.5025 16.3262 19.9757 17.5982 19.0379 18.536C18.1001 19.4738 16.8281 20.0006 15.5019 20.0006C14.1756 20.0006 12.9037 19.4738 11.9659 18.536C11.0281 17.5982 10.5013 16.3262 10.5013 15C10.5013 13.6738 11.0281 12.4018 11.9659 11.464C12.9037 10.5262 14.1756 9.99938 15.5019 9.99938Z" fill="white"/>
</svg>
