<svg width="31" height="27" viewBox="0 0 31 27" fill="none" xmlns="http://www.w3.org/2000/svg">
<path d="M30.5473 12.4724C30.5536 12.6594 30.5049 12.8442 30.4072 13.0038C30.3094 13.1634 30.1669 13.2908 29.9974 13.3701L2.91497 26.1144C2.67642 26.2266 2.41155 26.2708 2.14951 26.2421C1.88747 26.2135 1.63842 26.1131 1.42977 25.952C1.22113 25.7909 1.06097 25.5754 0.966937 25.3291C0.8729 25.0829 0.848627 24.8155 0.896788 24.5563L2.96505 13.4373L0.127597 2.48989C0.0610274 2.23447 0.0663155 1.96561 0.142878 1.71299C0.21944 1.46037 0.364301 1.2338 0.561474 1.05828C0.758648 0.882766 1.00047 0.765127 1.26026 0.718346C1.52004 0.671564 1.78769 0.69746 2.03368 0.793175L29.9349 11.6166C30.1095 11.6839 30.2605 11.801 30.3692 11.9534C30.4778 12.1058 30.5393 12.2867 30.546 12.4738L30.5473 12.4724ZM4.73972 14.3294L2.9449 23.9873L24.9728 13.6216L4.73972 14.3294ZM24.9062 11.7128L2.21025 2.91172L4.67588 12.4205L24.9076 11.7141L24.9062 11.7128Z" fill="black"/>
</svg>
