<svg width="31" height="30" viewBox="0 0 31 30" fill="none" xmlns="http://www.w3.org/2000/svg">
<path d="M17.6429 0H21.8857C22.1943 1.34062 23.0429 3.03187 24.5321 4.71C25.9893 6.35437 27.9221 7.5 30.5 7.5V11.25C26.7436 11.25 23.9214 9.72375 21.9286 7.82062V20.625C21.9286 22.4792 21.3002 24.2918 20.1229 25.8335C18.9456 27.3752 17.2722 28.5768 15.3145 29.2864C13.3567 29.9959 11.2024 30.1816 9.12404 29.8199C7.04567 29.4581 5.13657 28.5652 3.63815 27.2541C2.13973 25.943 1.11929 24.2725 0.705877 22.454C0.292464 20.6354 0.504642 18.7504 1.31558 17.0373C2.12652 15.3243 3.4998 13.8601 5.26175 12.83C7.02371 11.7998 9.0952 11.25 11.2143 11.25V15C9.94284 15 8.69994 15.3299 7.64277 15.948C6.58559 16.5661 5.76163 17.4446 5.27506 18.4724C4.7885 19.5002 4.66119 20.6312 4.90924 21.7224C5.15729 22.8135 5.76955 23.8158 6.6686 24.6025C7.56765 25.3891 8.71312 25.9249 9.96014 26.1419C11.2072 26.359 12.4997 26.2476 13.6744 25.8218C14.8491 25.3961 15.8531 24.6751 16.5594 23.7501C17.2658 22.8251 17.6429 21.7375 17.6429 20.625V0Z" fill="white"/>
</svg>
