<svg width="31" height="30" viewBox="0 0 31 30" fill="none" xmlns="http://www.w3.org/2000/svg">
<path d="M9.92375 30C21.245 30 27.4381 18.4552 27.4381 8.46115C27.4381 8.13809 27.4381 7.81041 27.4269 7.48735C28.6326 6.41315 29.6732 5.08322 30.5 3.55987C29.3737 4.17103 28.1802 4.57383 26.9581 4.75519C28.2454 3.80825 29.2095 2.31833 29.6712 0.562339C28.4619 1.44412 27.1382 2.06312 25.7581 2.39224C24.8303 1.17621 23.6026 0.370621 22.2652 0.100265C20.9277 -0.17009 19.5551 0.109874 18.36 0.896792C17.1649 1.68371 16.214 2.93366 15.6546 4.45304C15.0952 5.97242 14.9585 7.67642 15.2656 9.3011C12.8183 9.15008 10.424 8.36762 8.2382 7.00448C6.05238 5.64134 4.12378 3.72796 2.5775 1.38845C1.79251 3.05701 1.55295 5.03072 1.90746 6.90877C2.26197 8.78682 3.18398 10.4284 4.48625 11.5002C3.51039 11.4594 2.55598 11.1369 1.7 10.5587V10.6626C1.70168 12.4105 2.1937 14.1041 3.09289 15.4571C3.99208 16.8102 5.24328 17.7396 6.635 18.0883C6.10674 18.2674 5.56106 18.3567 5.01312 18.3537C4.62684 18.3551 4.24134 18.3111 3.86188 18.2222C4.25522 19.7268 5.02114 21.0424 6.05234 21.9846C7.08354 22.9268 8.32838 23.4485 9.6125 23.4765C7.43104 25.5852 4.73638 26.7288 1.9625 26.7233C1.47373 26.7258 0.985293 26.6911 0.5 26.6194C3.31534 28.8284 6.58493 30.0013 9.92375 30Z" fill="white"/>
</svg>
