<svg width="100" height="76" viewBox="0 0 100 76" fill="none" xmlns="http://www.w3.org/2000/svg">
<path d="M0 63V13C0 9.68479 1.31696 6.50537 3.66117 4.16116C6.00537 1.81696 9.18479 0.5 12.5 0.5H87.5C90.8152 0.5 93.9946 1.81696 96.3388 4.16116C98.683 6.50537 100 9.68479 100 13V63C100 66.3152 98.683 69.4946 96.3388 71.8388C93.9946 74.183 90.8152 75.5 87.5 75.5H12.5C9.18479 75.5 6.00537 74.183 3.66117 71.8388C1.31696 69.4946 0 66.3152 0 63ZM42.4375 19.8312C41.9702 19.4986 41.4204 19.3009 40.8483 19.2599C40.2761 19.2189 39.7037 19.3362 39.1938 19.5989C38.6839 19.8616 38.2561 20.2596 37.9573 20.7493C37.6586 21.2389 37.5004 21.8014 37.5 22.375V53.625C37.5004 54.1986 37.6586 54.7611 37.9573 55.2507C38.2561 55.7404 38.6839 56.1384 39.1938 56.4011C39.7037 56.6638 40.2761 56.7811 40.8483 56.7401C41.4204 56.6991 41.9702 56.5014 42.4375 56.1687L64.3125 40.5437C64.7176 40.2547 65.0478 39.873 65.2756 39.4306C65.5034 38.9881 65.6223 38.4977 65.6223 38C65.6223 37.5023 65.5034 37.0119 65.2756 36.5694C65.0478 36.127 64.7176 35.7453 64.3125 35.4562L42.4375 19.8312V19.8312Z" fill="white"/>
</svg>
